<svg xmlns="http://www.w3.org/2000/svg" width="4274" height="3976" viewBox="0 0 4274 3976">
    <path fill="#ff7f00"
          d="M511.602 2198.56C54.224 1741.18-9.59 935.82 447.774 478.46c457.378-457.39 1198.926-457.38 1656.306 0L2160 539.1c466.74-386.5 1205.48-417.72 1635.96 12.75 457.38 457.38 457.38 1198.93 0 1656.3l-21.04 11.85c12.27 81.2-13.94 167.53-76.61 230.17-102.98 103.01-269.98 102.98-372.97-.01l.96 3.56c103 103.02 98.5 269.99-4.5 372.98-103 103.01-269.99 102.99-372.97-.01l.95 3.56c103.01 103 98.5 270.002-4.49 372.971-103 102.998-270 102.978-372.99 0l-72.46-71.914c103.01 102.998 102.99 269.97 0 372.959l-261.68 261.699c-103 102.998-270 98.496-372.99-4.502-103-102.998-102.96-269.971.01-372.969l-3.55.947c-103.01 102.998-269.99 98.506-372.97-4.492-103.02-102.998-102.99-269.99 0-372.978l-3.54.957c-103.01 102.998-270 98.486-373-4.502-102.99-103.006-102.96-269.976.01-372.966l-3.55.94c-103 102.99-269.986 98.51-372.974-4.49-77.837-77.84-96.841-192.22-57.032-287.91Z"/>
    <path fill="none" stroke="#0080ff" stroke-linecap="round" stroke-width="180"
          d="M2238.16 3765.965c-103 102.998-270 98.496-372.99-4.502-103-102.998-102.96-269.971.01-372.969l261.69-261.689c103-102.998 270-98.496 372.97 4.502 103.01 102.998 102.99 269.97 0 372.959Zm-376.53-376.524c-103.01 102.998-269.99 98.506-372.97-4.492-103.02-102.998-102.99-269.99 0-372.978l261.68-261.681c103.02-103 270.02-98.5 372.99 4.48 103 103 102.98 269.994 0 372.992Zm-376.51-376.513c-103.01 102.998-270 98.486-373-4.502-102.99-103.006-102.96-269.976.01-372.966l261.7-261.69c103-103.02 270-98.51 372.97 4.49 103.02 103 102.99 269.99 0 372.98ZM1108.58 2636.4c-103 102.99-269.986 98.51-372.974-4.49-102.998-103-102.979-269.99.009-372.98l261.685-261.7c103.02-102.99 269.99-98.49 372.99 4.51 103 102.99 102.97 269.99-.01 372.97Zm1430.8-1719.79-451.13 451.52c-219.3 222.84-563.3 222.84-775.5 10.65l765.2-765.21m-2.11 2.11c457.38-457.38 1262.74-521.2 1720.12-63.83 457.38 457.38 457.38 1198.93 0 1656.3M2546.84 921.23l1155.97 1155.98c103.02 102.99 98.52 269.98-4.5 372.96-102.98 103.01-269.98 102.98-372.97-.01m-777.63-775.04 778.59 778.6c103 103.02 98.5 269.99-4.5 372.98-103 103.01-269.99 102.99-372.97-.01l-778.59-778.61m779.54 782.17c103.01 103 98.5 270.002-4.49 372.971-103 102.998-270 102.978-372.99 0M617.393 2304.35l-105.791-105.79C54.224 1741.18-9.59 935.82 447.774 478.46c457.378-457.39 1198.926-457.38 1656.306 0l32.13 32.31"/>
</svg>